<?xml version="1.0" encoding="UTF-8" standalone="no"?>
<!DOCTYPE svg PUBLIC "-//W3C//DTD SVG 1.1//EN"
 "http://www.w3.org/Graphics/SVG/1.1/DTD/svg11.dtd">
<!-- Generated by graphviz version 2.38.0 (20140413.2041)
 -->
<!-- Title: controllers_diagram Pages: 1 -->
<svg width="557pt" height="549pt"
 viewBox="0.00 0.00 556.69 548.50" xmlns="http://www.w3.org/2000/svg" xmlns:xlink="http://www.w3.org/1999/xlink">
<g id="graph0" class="graph" transform="scale(1 1) rotate(0) translate(224.941 357.5)">
<title>controllers_diagram</title>
<polygon fill="white" stroke="none" points="-224.941,191 -224.941,-357.5 331.752,-357.5 331.752,191 -224.941,191"/>
<!-- _diagram_info -->
<g id="node1" class="node"><title>_diagram_info</title>
<text text-anchor="start" x="93.2798" y="141.4" font-family="Times,serif" font-size="13.00">Controllers diagram</text>
<text text-anchor="start" x="93.2798" y="154.4" font-family="Times,serif" font-size="13.00">Date: Apr 06 2015 &#45; 12:45</text>
<text text-anchor="start" x="93.2798" y="167.4" font-family="Times,serif" font-size="13.00">Generated by RailRoady 1.3.0</text>
<text text-anchor="start" x="93.2798" y="180.4" font-family="Times,serif" font-size="13.00">http://railroady.prestonlee.com</text>
</g>
<!-- AdminsController -->
<g id="node2" class="node"><title>AdminsController</title>
<path fill="none" stroke="black" d="M-208.941,-222C-208.941,-222 -115.059,-222 -115.059,-222 -109.059,-222 -103.059,-228 -103.059,-234 -103.059,-234 -103.059,-300 -103.059,-300 -103.059,-306 -109.059,-312 -115.059,-312 -115.059,-312 -208.941,-312 -208.941,-312 -214.941,-312 -220.941,-306 -220.941,-300 -220.941,-300 -220.941,-234 -220.941,-234 -220.941,-228 -214.941,-222 -208.941,-222"/>
<text text-anchor="middle" x="-162" y="-296.8" font-family="Times,serif" font-size="14.00">AdminsController</text>
<polyline fill="none" stroke="black" points="-220.941,-290 -103.059,-290 "/>
<text text-anchor="start" x="-212.941" y="-274.8" font-family="Times,serif" font-size="14.00">index</text>
<polyline fill="none" stroke="black" points="-220.941,-268 -103.059,-268 "/>
<polyline fill="none" stroke="black" points="-220.941,-244 -103.059,-244 "/>
<text text-anchor="start" x="-212.941" y="-228.8" font-family="Times,serif" font-size="14.00">_layout</text>
</g>
<!-- ApplicationController -->
<g id="node3" class="node"><title>ApplicationController</title>
<path fill="none" stroke="black" d="M182.248,-171C182.248,-171 315.752,-171 315.752,-171 321.752,-171 327.752,-177 327.752,-183 327.752,-183 327.752,-249 327.752,-249 327.752,-255 321.752,-261 315.752,-261 315.752,-261 182.248,-261 182.248,-261 176.248,-261 170.248,-255 170.248,-249 170.248,-249 170.248,-183 170.248,-183 170.248,-177 176.248,-171 182.248,-171"/>
<text text-anchor="middle" x="249" y="-245.8" font-family="Times,serif" font-size="14.00">ApplicationController</text>
<polyline fill="none" stroke="black" points="170.248,-239 327.752,-239 "/>
<text text-anchor="start" x="178.248" y="-223.8" font-family="Times,serif" font-size="14.00">update_sanitized_params</text>
<polyline fill="none" stroke="black" points="170.248,-217 327.752,-217 "/>
<polyline fill="none" stroke="black" points="170.248,-193 327.752,-193 "/>
<text text-anchor="start" x="178.248" y="-177.8" font-family="Times,serif" font-size="14.00">_layout</text>
</g>
<!-- CompaniesController -->
<g id="node4" class="node"><title>CompaniesController</title>
<path fill="none" stroke="black" d="M96.731,84C96.731,84 209.269,84 209.269,84 215.269,84 221.269,78 221.269,72 221.269,72 221.269,-120 221.269,-120 221.269,-126 215.269,-132 209.269,-132 209.269,-132 96.731,-132 96.731,-132 90.731,-132 84.731,-126 84.731,-120 84.731,-120 84.731,72 84.731,72 84.731,78 90.731,84 96.731,84"/>
<text text-anchor="middle" x="153" y="-116.8" font-family="Times,serif" font-size="14.00">CompaniesController</text>
<polyline fill="none" stroke="black" points="84.731,-110 221.269,-110 "/>
<text text-anchor="start" x="92.731" y="-94.8" font-family="Times,serif" font-size="14.00">create</text>
<text text-anchor="start" x="92.731" y="-80.8" font-family="Times,serif" font-size="14.00">destroy</text>
<text text-anchor="start" x="92.731" y="-66.8" font-family="Times,serif" font-size="14.00">edit</text>
<text text-anchor="start" x="92.731" y="-52.8" font-family="Times,serif" font-size="14.00">index</text>
<text text-anchor="start" x="92.731" y="-38.8" font-family="Times,serif" font-size="14.00">new</text>
<text text-anchor="start" x="92.731" y="-24.8" font-family="Times,serif" font-size="14.00">profile</text>
<text text-anchor="start" x="92.731" y="-10.8" font-family="Times,serif" font-size="14.00">show</text>
<text text-anchor="start" x="92.731" y="3.2" font-family="Times,serif" font-size="14.00">update</text>
<polyline fill="none" stroke="black" points="84.731,10 221.269,10 "/>
<polyline fill="none" stroke="black" points="84.731,34 221.269,34 "/>
<text text-anchor="start" x="92.731" y="49.2" font-family="Times,serif" font-size="14.00">_layout</text>
<text text-anchor="start" x="92.731" y="63.2" font-family="Times,serif" font-size="14.00">company_params</text>
<text text-anchor="start" x="92.731" y="77.2" font-family="Times,serif" font-size="14.00">set_company</text>
</g>
<!-- ConsultantsController -->
<g id="node5" class="node"><title>ConsultantsController</title>
<path fill="none" stroke="black" d="M-72.8311,118C-72.8311,118 42.8311,118 42.8311,118 48.8311,118 54.8311,112 54.8311,106 54.8311,106 54.8311,-86 54.8311,-86 54.8311,-92 48.8311,-98 42.8311,-98 42.8311,-98 -72.8311,-98 -72.8311,-98 -78.8311,-98 -84.8311,-92 -84.8311,-86 -84.8311,-86 -84.8311,106 -84.8311,106 -84.8311,112 -78.8311,118 -72.8311,118"/>
<text text-anchor="middle" x="-15" y="-82.8" font-family="Times,serif" font-size="14.00">ConsultantsController</text>
<polyline fill="none" stroke="black" points="-84.8311,-76 54.8311,-76 "/>
<text text-anchor="start" x="-76.8311" y="-60.8" font-family="Times,serif" font-size="14.00">create</text>
<text text-anchor="start" x="-76.8311" y="-46.8" font-family="Times,serif" font-size="14.00">destroy</text>
<text text-anchor="start" x="-76.8311" y="-32.8" font-family="Times,serif" font-size="14.00">edit</text>
<text text-anchor="start" x="-76.8311" y="-18.8" font-family="Times,serif" font-size="14.00">index</text>
<text text-anchor="start" x="-76.8311" y="-4.8" font-family="Times,serif" font-size="14.00">new</text>
<text text-anchor="start" x="-76.8311" y="9.2" font-family="Times,serif" font-size="14.00">profile</text>
<text text-anchor="start" x="-76.8311" y="23.2" font-family="Times,serif" font-size="14.00">show</text>
<text text-anchor="start" x="-76.8311" y="37.2" font-family="Times,serif" font-size="14.00">update</text>
<polyline fill="none" stroke="black" points="-84.8311,44 54.8311,44 "/>
<polyline fill="none" stroke="black" points="-84.8311,68 54.8311,68 "/>
<text text-anchor="start" x="-76.8311" y="83.2" font-family="Times,serif" font-size="14.00">_layout</text>
<text text-anchor="start" x="-76.8311" y="97.2" font-family="Times,serif" font-size="14.00">consultant_params</text>
<text text-anchor="start" x="-76.8311" y="111.2" font-family="Times,serif" font-size="14.00">set_consultant</text>
</g>
<!-- IndexController -->
<g id="node6" class="node"><title>IndexController</title>
<path fill="none" stroke="black" d="M-208.71,-103C-208.71,-103 -127.29,-103 -127.29,-103 -121.29,-103 -115.29,-109 -115.29,-115 -115.29,-115 -115.29,-181 -115.29,-181 -115.29,-187 -121.29,-193 -127.29,-193 -127.29,-193 -208.71,-193 -208.71,-193 -214.71,-193 -220.71,-187 -220.71,-181 -220.71,-181 -220.71,-115 -220.71,-115 -220.71,-109 -214.71,-103 -208.71,-103"/>
<text text-anchor="middle" x="-168" y="-177.8" font-family="Times,serif" font-size="14.00">IndexController</text>
<polyline fill="none" stroke="black" points="-220.71,-171 -115.29,-171 "/>
<text text-anchor="start" x="-212.71" y="-155.8" font-family="Times,serif" font-size="14.00">index</text>
<polyline fill="none" stroke="black" points="-220.71,-149 -115.29,-149 "/>
<polyline fill="none" stroke="black" points="-220.71,-125 -115.29,-125 "/>
<text text-anchor="start" x="-212.71" y="-109.8" font-family="Times,serif" font-size="14.00">_layout</text>
</g>
<!-- NetworksController -->
<g id="node7" class="node"><title>NetworksController</title>
<path fill="none" stroke="black" d="M-55.9897,-137C-55.9897,-137 47.9897,-137 47.9897,-137 53.9897,-137 59.9897,-143 59.9897,-149 59.9897,-149 59.9897,-341 59.9897,-341 59.9897,-347 53.9897,-353 47.9897,-353 47.9897,-353 -55.9897,-353 -55.9897,-353 -61.9897,-353 -67.9897,-347 -67.9897,-341 -67.9897,-341 -67.9897,-149 -67.9897,-149 -67.9897,-143 -61.9897,-137 -55.9897,-137"/>
<text text-anchor="middle" x="-4" y="-337.8" font-family="Times,serif" font-size="14.00">NetworksController</text>
<polyline fill="none" stroke="black" points="-67.9897,-331 59.9897,-331 "/>
<text text-anchor="start" x="-59.9897" y="-315.8" font-family="Times,serif" font-size="14.00">create</text>
<text text-anchor="start" x="-59.9897" y="-301.8" font-family="Times,serif" font-size="14.00">destroy</text>
<text text-anchor="start" x="-59.9897" y="-287.8" font-family="Times,serif" font-size="14.00">edit</text>
<text text-anchor="start" x="-59.9897" y="-273.8" font-family="Times,serif" font-size="14.00">index</text>
<text text-anchor="start" x="-59.9897" y="-259.8" font-family="Times,serif" font-size="14.00">new</text>
<text text-anchor="start" x="-59.9897" y="-245.8" font-family="Times,serif" font-size="14.00">profile</text>
<text text-anchor="start" x="-59.9897" y="-231.8" font-family="Times,serif" font-size="14.00">show</text>
<text text-anchor="start" x="-59.9897" y="-217.8" font-family="Times,serif" font-size="14.00">update</text>
<polyline fill="none" stroke="black" points="-67.9897,-211 59.9897,-211 "/>
<polyline fill="none" stroke="black" points="-67.9897,-187 59.9897,-187 "/>
<text text-anchor="start" x="-59.9897" y="-171.8" font-family="Times,serif" font-size="14.00">_layout</text>
<text text-anchor="start" x="-59.9897" y="-157.8" font-family="Times,serif" font-size="14.00">network_params</text>
<text text-anchor="start" x="-59.9897" y="-143.8" font-family="Times,serif" font-size="14.00">set_network</text>
</g>
</g>
</svg>
