<?xml version="1.0" encoding="UTF-8" standalone="no"?>
<!DOCTYPE svg PUBLIC "-//W3C//DTD SVG 1.1//EN"
 "http://www.w3.org/Graphics/SVG/1.1/DTD/svg11.dtd">
<!-- Generated by graphviz version 2.38.0 (20140413.2041)
 -->
<!-- Title: models_diagram Pages: 1 -->
<svg width="792pt" height="649pt"
 viewBox="0.00 0.00 792.43 649.00" xmlns="http://www.w3.org/2000/svg" xmlns:xlink="http://www.w3.org/1999/xlink">
<g id="graph0" class="graph" transform="scale(1 1) rotate(0) translate(4 645)">
<title>models_diagram</title>
<polygon fill="white" stroke="none" points="-4,4 -4,-645 788.428,-645 788.428,4 -4,4"/>
<!-- _diagram_info -->
<g id="node1" class="node"><title>_diagram_info</title>
<text text-anchor="start" x="8" y="-543.1" font-family="Times,serif" font-size="13.00">Models diagram</text>
<text text-anchor="start" x="8" y="-530.1" font-family="Times,serif" font-size="13.00">Date: Apr 06 2015 &#45; 12:45</text>
<text text-anchor="start" x="8" y="-517.1" font-family="Times,serif" font-size="13.00">Generated by RailRoady 1.3.0</text>
<text text-anchor="start" x="8" y="-504.1" font-family="Times,serif" font-size="13.00">http://railroady.prestonlee.com</text>
</g>
<!-- Admin -->
<g id="node2" class="node"><title>Admin</title>
<path fill="none" stroke="black" d="M205.013,-435.5C205.013,-435.5 366.428,-435.5 366.428,-435.5 372.428,-435.5 378.428,-441.5 378.428,-447.5 378.428,-447.5 378.428,-607.5 378.428,-607.5 378.428,-613.5 372.428,-619.5 366.428,-619.5 366.428,-619.5 205.013,-619.5 205.013,-619.5 199.013,-619.5 193.013,-613.5 193.013,-607.5 193.013,-607.5 193.013,-447.5 193.013,-447.5 193.013,-441.5 199.013,-435.5 205.013,-435.5"/>
<text text-anchor="middle" x="285.72" y="-604.3" font-family="Times,serif" font-size="14.00">Admin</text>
<polyline fill="none" stroke="black" points="193.013,-597.5 378.428,-597.5 "/>
<text text-anchor="start" x="201.013" y="-582.3" font-family="Times,serif" font-size="14.00">_id :BSON::ObjectId</text>
<text text-anchor="start" x="201.013" y="-568.3" font-family="Times,serif" font-size="14.00">current_sign_in_at :Time</text>
<text text-anchor="start" x="201.013" y="-554.3" font-family="Times,serif" font-size="14.00">current_sign_in_ip :String</text>
<text text-anchor="start" x="201.013" y="-540.3" font-family="Times,serif" font-size="14.00">email :String</text>
<text text-anchor="start" x="201.013" y="-526.3" font-family="Times,serif" font-size="14.00">encrypted_password :String</text>
<text text-anchor="start" x="201.013" y="-512.3" font-family="Times,serif" font-size="14.00">last_sign_in_at :Time</text>
<text text-anchor="start" x="201.013" y="-498.3" font-family="Times,serif" font-size="14.00">last_sign_in_ip :String</text>
<text text-anchor="start" x="201.013" y="-484.3" font-family="Times,serif" font-size="14.00">remember_created_at :Time</text>
<text text-anchor="start" x="201.013" y="-470.3" font-family="Times,serif" font-size="14.00">reset_password_sent_at :Time</text>
<text text-anchor="start" x="201.013" y="-456.3" font-family="Times,serif" font-size="14.00">reset_password_token :String</text>
<text text-anchor="start" x="201.013" y="-442.3" font-family="Times,serif" font-size="14.00">sign_in_count :Integer</text>
</g>
<!-- CompaniesConsultant -->
<g id="node3" class="node"><title>CompaniesConsultant</title>
<path fill="none" stroke="black" d="M490.889,-0.5C490.889,-0.5 606.551,-0.5 606.551,-0.5 612.551,-0.5 618.551,-6.5 618.551,-12.5 618.551,-12.5 618.551,-74.5 618.551,-74.5 618.551,-80.5 612.551,-86.5 606.551,-86.5 606.551,-86.5 490.889,-86.5 490.889,-86.5 484.889,-86.5 478.889,-80.5 478.889,-74.5 478.889,-74.5 478.889,-12.5 478.889,-12.5 478.889,-6.5 484.889,-0.5 490.889,-0.5"/>
<text text-anchor="middle" x="548.72" y="-71.3" font-family="Times,serif" font-size="14.00">CompaniesConsultant</text>
<polyline fill="none" stroke="black" points="478.889,-64.5 618.551,-64.5 "/>
<text text-anchor="start" x="486.889" y="-49.3" font-family="Times,serif" font-size="14.00">_id :BSON::ObjectId</text>
<text text-anchor="start" x="486.889" y="-35.3" font-family="Times,serif" font-size="14.00">company_id :Object</text>
<text text-anchor="start" x="486.889" y="-21.3" font-family="Times,serif" font-size="14.00">consultant_id :Object</text>
<text text-anchor="start" x="486.889" y="-7.3" font-family="Times,serif" font-size="14.00">created_at :Time</text>
</g>
<!-- Company -->
<g id="node4" class="node"><title>Company</title>
<path fill="none" stroke="black" d="M408.013,-414.5C408.013,-414.5 569.428,-414.5 569.428,-414.5 575.428,-414.5 581.428,-420.5 581.428,-426.5 581.428,-426.5 581.428,-628.5 581.428,-628.5 581.428,-634.5 575.428,-640.5 569.428,-640.5 569.428,-640.5 408.013,-640.5 408.013,-640.5 402.013,-640.5 396.013,-634.5 396.013,-628.5 396.013,-628.5 396.013,-426.5 396.013,-426.5 396.013,-420.5 402.013,-414.5 408.013,-414.5"/>
<text text-anchor="middle" x="488.72" y="-625.3" font-family="Times,serif" font-size="14.00">Company</text>
<polyline fill="none" stroke="black" points="396.013,-618.5 581.428,-618.5 "/>
<text text-anchor="start" x="404.013" y="-603.3" font-family="Times,serif" font-size="14.00">_id :BSON::ObjectId</text>
<text text-anchor="start" x="404.013" y="-589.3" font-family="Times,serif" font-size="14.00">consultant_ids :Array</text>
<text text-anchor="start" x="404.013" y="-575.3" font-family="Times,serif" font-size="14.00">created_at :Time</text>
<text text-anchor="start" x="404.013" y="-561.3" font-family="Times,serif" font-size="14.00">current_sign_in_at :Time</text>
<text text-anchor="start" x="404.013" y="-547.3" font-family="Times,serif" font-size="14.00">current_sign_in_ip :String</text>
<text text-anchor="start" x="404.013" y="-533.3" font-family="Times,serif" font-size="14.00">email :String</text>
<text text-anchor="start" x="404.013" y="-519.3" font-family="Times,serif" font-size="14.00">encrypted_password :String</text>
<text text-anchor="start" x="404.013" y="-505.3" font-family="Times,serif" font-size="14.00">last_sign_in_at :Time</text>
<text text-anchor="start" x="404.013" y="-491.3" font-family="Times,serif" font-size="14.00">last_sign_in_ip :String</text>
<text text-anchor="start" x="404.013" y="-477.3" font-family="Times,serif" font-size="14.00">name :String</text>
<text text-anchor="start" x="404.013" y="-463.3" font-family="Times,serif" font-size="14.00">remember_created_at :Time</text>
<text text-anchor="start" x="404.013" y="-449.3" font-family="Times,serif" font-size="14.00">reset_password_sent_at :Time</text>
<text text-anchor="start" x="404.013" y="-435.3" font-family="Times,serif" font-size="14.00">reset_password_token :String</text>
<text text-anchor="start" x="404.013" y="-421.3" font-family="Times,serif" font-size="14.00">sign_in_count :Integer</text>
</g>
<!-- Company&#45;&gt;CompaniesConsultant -->
<g id="edge2" class="edge"><title>Company&#45;&gt;CompaniesConsultant</title>
<path fill="none" stroke="#21efef" d="M480.959,-406.191C478.952,-324.852 482.624,-215.774 507.72,-123 510.193,-113.857 513.85,-104.569 517.978,-95.7349"/>
<ellipse fill="none" stroke="#21efef" cx="481.075" cy="-410.473" rx="4" ry="4"/>
<polygon fill="#21efef" stroke="#21efef" points="518.001,-95.6887 526.457,-88.707 520.211,-91.2035 522.421,-86.7183 522.421,-86.7183 522.421,-86.7183 520.211,-91.2035 518.384,-84.7295 518.001,-95.6887 518.001,-95.6887"/>
</g>
<!-- Consultant -->
<g id="node5" class="node"><title>Consultant</title>
<path fill="none" stroke="black" d="M529.013,-123.5C529.013,-123.5 690.428,-123.5 690.428,-123.5 696.428,-123.5 702.428,-129.5 702.428,-135.5 702.428,-135.5 702.428,-365.5 702.428,-365.5 702.428,-371.5 696.428,-377.5 690.428,-377.5 690.428,-377.5 529.013,-377.5 529.013,-377.5 523.013,-377.5 517.013,-371.5 517.013,-365.5 517.013,-365.5 517.013,-135.5 517.013,-135.5 517.013,-129.5 523.013,-123.5 529.013,-123.5"/>
<text text-anchor="middle" x="609.72" y="-362.3" font-family="Times,serif" font-size="14.00">Consultant</text>
<polyline fill="none" stroke="black" points="517.013,-355.5 702.428,-355.5 "/>
<text text-anchor="start" x="525.013" y="-340.3" font-family="Times,serif" font-size="14.00">_id :BSON::ObjectId</text>
<text text-anchor="start" x="525.013" y="-326.3" font-family="Times,serif" font-size="14.00">company_ids :Array</text>
<text text-anchor="start" x="525.013" y="-312.3" font-family="Times,serif" font-size="14.00">created_at :Time</text>
<text text-anchor="start" x="525.013" y="-298.3" font-family="Times,serif" font-size="14.00">current_sign_in_at :Time</text>
<text text-anchor="start" x="525.013" y="-284.3" font-family="Times,serif" font-size="14.00">current_sign_in_ip :String</text>
<text text-anchor="start" x="525.013" y="-270.3" font-family="Times,serif" font-size="14.00">email :String</text>
<text text-anchor="start" x="525.013" y="-256.3" font-family="Times,serif" font-size="14.00">encrypted_password :String</text>
<text text-anchor="start" x="525.013" y="-242.3" font-family="Times,serif" font-size="14.00">last_sign_in_at :Time</text>
<text text-anchor="start" x="525.013" y="-228.3" font-family="Times,serif" font-size="14.00">last_sign_in_ip :String</text>
<text text-anchor="start" x="525.013" y="-214.3" font-family="Times,serif" font-size="14.00">name :String</text>
<text text-anchor="start" x="525.013" y="-200.3" font-family="Times,serif" font-size="14.00">network_id :Object</text>
<text text-anchor="start" x="525.013" y="-186.3" font-family="Times,serif" font-size="14.00">remember_created_at :Time</text>
<text text-anchor="start" x="525.013" y="-172.3" font-family="Times,serif" font-size="14.00">reset_password_sent_at :Time</text>
<text text-anchor="start" x="525.013" y="-158.3" font-family="Times,serif" font-size="14.00">reset_password_token :String</text>
<text text-anchor="start" x="525.013" y="-144.3" font-family="Times,serif" font-size="14.00">sign_in_count :Integer</text>
<text text-anchor="start" x="525.013" y="-130.3" font-family="Times,serif" font-size="14.00">updated_at :Time</text>
</g>
<!-- Company&#45;&gt;Consultant -->
<g id="edge1" class="edge"><title>Company&#45;&gt;Consultant</title>
<path fill="none" stroke="#eea58d" d="M542.224,-404.899C544.827,-398.986 547.446,-393.032 550.064,-387.083"/>
<polygon fill="#eea58d" stroke="#eea58d" points="542.138,-405.097 533.991,-412.438 540.124,-409.674 538.11,-414.25 538.11,-414.25 538.11,-414.25 540.124,-409.674 542.229,-416.063 542.138,-405.097 542.138,-405.097"/>
<polygon fill="#eea58d" stroke="#eea58d" points="550.145,-386.898 558.291,-379.558 552.159,-382.322 554.172,-377.745 554.172,-377.745 554.172,-377.745 552.159,-382.322 550.053,-375.933 550.145,-386.898 550.145,-386.898"/>
</g>
<!-- Consultant&#45;&gt;CompaniesConsultant -->
<g id="edge3" class="edge"><title>Consultant&#45;&gt;CompaniesConsultant</title>
<path fill="none" stroke="#e7526d" d="M569.872,-115.583C567.927,-109.048 566.039,-102.702 564.243,-96.6663"/>
<ellipse fill="none" stroke="#e7526d" cx="571.076" cy="-119.631" rx="4.00001" ry="4.00001"/>
<polygon fill="#e7526d" stroke="#e7526d" points="564.166,-96.4064 565.627,-85.5383 562.74,-91.614 561.313,-86.8217 561.313,-86.8217 561.313,-86.8217 562.74,-91.614 557,-88.1051 564.166,-96.4064 564.166,-96.4064"/>
</g>
<!-- Network -->
<g id="node6" class="node"><title>Network</title>
<path fill="none" stroke="black" d="M611.013,-421.5C611.013,-421.5 772.428,-421.5 772.428,-421.5 778.428,-421.5 784.428,-427.5 784.428,-433.5 784.428,-433.5 784.428,-621.5 784.428,-621.5 784.428,-627.5 778.428,-633.5 772.428,-633.5 772.428,-633.5 611.013,-633.5 611.013,-633.5 605.013,-633.5 599.013,-627.5 599.013,-621.5 599.013,-621.5 599.013,-433.5 599.013,-433.5 599.013,-427.5 605.013,-421.5 611.013,-421.5"/>
<text text-anchor="middle" x="691.72" y="-618.3" font-family="Times,serif" font-size="14.00">Network</text>
<polyline fill="none" stroke="black" points="599.013,-611.5 784.428,-611.5 "/>
<text text-anchor="start" x="607.013" y="-596.3" font-family="Times,serif" font-size="14.00">_id :BSON::ObjectId</text>
<text text-anchor="start" x="607.013" y="-582.3" font-family="Times,serif" font-size="14.00">created_at :Time</text>
<text text-anchor="start" x="607.013" y="-568.3" font-family="Times,serif" font-size="14.00">current_sign_in_at :Time</text>
<text text-anchor="start" x="607.013" y="-554.3" font-family="Times,serif" font-size="14.00">current_sign_in_ip :String</text>
<text text-anchor="start" x="607.013" y="-540.3" font-family="Times,serif" font-size="14.00">email :String</text>
<text text-anchor="start" x="607.013" y="-526.3" font-family="Times,serif" font-size="14.00">encrypted_password :String</text>
<text text-anchor="start" x="607.013" y="-512.3" font-family="Times,serif" font-size="14.00">last_sign_in_at :Time</text>
<text text-anchor="start" x="607.013" y="-498.3" font-family="Times,serif" font-size="14.00">last_sign_in_ip :String</text>
<text text-anchor="start" x="607.013" y="-484.3" font-family="Times,serif" font-size="14.00">name :String</text>
<text text-anchor="start" x="607.013" y="-470.3" font-family="Times,serif" font-size="14.00">remember_created_at :Time</text>
<text text-anchor="start" x="607.013" y="-456.3" font-family="Times,serif" font-size="14.00">reset_password_sent_at :Time</text>
<text text-anchor="start" x="607.013" y="-442.3" font-family="Times,serif" font-size="14.00">reset_password_token :String</text>
<text text-anchor="start" x="607.013" y="-428.3" font-family="Times,serif" font-size="14.00">sign_in_count :Integer</text>
</g>
<!-- Network&#45;&gt;Consultant -->
<g id="edge4" class="edge"><title>Network&#45;&gt;Consultant</title>
<path fill="none" stroke="#3bf1d8" d="M658.064,-413.63C655.504,-405.043 652.904,-396.323 650.306,-387.61"/>
<ellipse fill="none" stroke="#3bf1d8" cx="659.226" cy="-417.524" rx="4.00001" ry="4.00001"/>
<polygon fill="#3bf1d8" stroke="#3bf1d8" points="650.233,-387.367 651.688,-376.498 648.805,-382.575 647.376,-377.784 647.376,-377.784 647.376,-377.784 648.805,-382.575 643.063,-379.07 650.233,-387.367 650.233,-387.367"/>
</g>
</g>
</svg>
