<?xml version="1.0" encoding="UTF-8" standalone="no"?>
<!DOCTYPE svg PUBLIC "-//W3C//DTD SVG 1.1//EN"
 "http://www.w3.org/Graphics/SVG/1.1/DTD/svg11.dtd">
<!-- Generated by graphviz version 2.38.0 (20140413.2041)
 -->
<!-- Title: models_diagram Pages: 1 -->
<svg width="478pt" height="212pt"
 viewBox="0.00 0.00 477.77 212.00" xmlns="http://www.w3.org/2000/svg" xmlns:xlink="http://www.w3.org/1999/xlink">
<g id="graph0" class="graph" transform="scale(1 1) rotate(0) translate(4 208)">
<title>models_diagram</title>
<polygon fill="white" stroke="none" points="-4,4 -4,-208 473.771,-208 473.771,4 -4,4"/>
<!-- _diagram_info -->
<g id="node1" class="node"><title>_diagram_info</title>
<text text-anchor="start" x="8" y="-189.6" font-family="Times,serif" font-size="13.00">Models diagram</text>
<text text-anchor="start" x="8" y="-176.6" font-family="Times,serif" font-size="13.00">Date: Apr 06 2015 &#45; 12:45</text>
<text text-anchor="start" x="8" y="-163.6" font-family="Times,serif" font-size="13.00">Generated by RailRoady 1.3.0</text>
<text text-anchor="start" x="8" y="-150.6" font-family="Times,serif" font-size="13.00">http://railroady.prestonlee.com</text>
</g>
<!-- Admin -->
<g id="node2" class="node"><title>Admin</title>
<ellipse fill="none" stroke="black" cx="227.72" cy="-174" rx="34.8458" ry="18"/>
<text text-anchor="middle" x="227.72" y="-169.8" font-family="Times,serif" font-size="14.00">Admin</text>
</g>
<!-- CompaniesConsultant -->
<g id="node3" class="node"><title>CompaniesConsultant</title>
<ellipse fill="none" stroke="black" cx="362.72" cy="-18" rx="88.443" ry="18"/>
<text text-anchor="middle" x="362.72" y="-13.8" font-family="Times,serif" font-size="14.00">CompaniesConsultant</text>
</g>
<!-- Company -->
<g id="node4" class="node"><title>Company</title>
<ellipse fill="none" stroke="black" cx="324.72" cy="-174" rx="44.4923" ry="18"/>
<text text-anchor="middle" x="324.72" y="-169.8" font-family="Times,serif" font-size="14.00">Company</text>
</g>
<!-- Company&#45;&gt;CompaniesConsultant -->
<g id="edge2" class="edge"><title>Company&#45;&gt;CompaniesConsultant</title>
<path fill="none" stroke="#73d1e8" d="M328.283,-148.07C331.495,-127.475 336.777,-97.5764 343.72,-72 346.087,-63.2815 349.221,-53.9503 352.26,-45.5851"/>
<ellipse fill="none" stroke="#73d1e8" cx="327.676" cy="-152.062" rx="4.00001" ry="4.00001"/>
<polygon fill="#73d1e8" stroke="#73d1e8" points="352.355,-45.3315 360.077,-37.5447 354.109,-40.6491 355.862,-35.9666 355.862,-35.9666 355.862,-35.9666 354.109,-40.6491 351.648,-34.3885 352.355,-45.3315 352.355,-45.3315"/>
</g>
<!-- Consultant -->
<g id="node5" class="node"><title>Consultant</title>
<ellipse fill="none" stroke="black" cx="400.72" cy="-90" rx="48.36" ry="18"/>
<text text-anchor="middle" x="400.72" y="-85.8" font-family="Times,serif" font-size="14.00">Consultant</text>
</g>
<!-- Company&#45;&gt;Consultant -->
<g id="edge1" class="edge"><title>Company&#45;&gt;Consultant</title>
<path fill="none" stroke="#d754e7" d="M346.727,-149.255C356.804,-138.383 368.716,-125.531 378.784,-114.668"/>
<polygon fill="#d754e7" stroke="#d754e7" points="346.533,-149.465 336.435,-153.74 343.134,-153.132 339.735,-156.799 339.735,-156.799 339.735,-156.799 343.134,-153.132 343.036,-159.858 346.533,-149.465 346.533,-149.465"/>
<polygon fill="#d754e7" stroke="#d754e7" points="378.939,-114.501 389.037,-110.226 382.337,-110.834 385.736,-107.167 385.736,-107.167 385.736,-107.167 382.337,-110.834 382.436,-104.108 378.939,-114.501 378.939,-114.501"/>
</g>
<!-- Consultant&#45;&gt;CompaniesConsultant -->
<g id="edge3" class="edge"><title>Consultant&#45;&gt;CompaniesConsultant</title>
<path fill="none" stroke="#8d1f6d" d="M387.598,-64.8269C384.171,-58.5146 380.461,-51.6811 376.979,-45.2658"/>
<ellipse fill="none" stroke="#8d1f6d" cx="389.613" cy="-68.5395" rx="4.00002" ry="4.00002"/>
<polygon fill="#8d1f6d" stroke="#8d1f6d" points="376.869,-45.0638 376.053,-34.1284 374.484,-40.6696 372.098,-36.2753 372.098,-36.2753 372.098,-36.2753 374.484,-40.6696 368.143,-38.4222 376.869,-45.0638 376.869,-45.0638"/>
</g>
<!-- Network -->
<g id="node6" class="node"><title>Network</title>
<ellipse fill="none" stroke="black" cx="428.72" cy="-174" rx="41.1007" ry="18"/>
<text text-anchor="middle" x="428.72" y="-169.8" font-family="Times,serif" font-size="14.00">Network</text>
</g>
<!-- Network&#45;&gt;Consultant -->
<g id="edge4" class="edge"><title>Network&#45;&gt;Consultant</title>
<path fill="none" stroke="#dd2a7d" d="M420.285,-148.296C416.983,-138.627 413.188,-127.513 409.825,-117.663"/>
<ellipse fill="none" stroke="#dd2a7d" cx="421.626" cy="-152.224" rx="4.00001" ry="4.00001"/>
<polygon fill="#dd2a7d" stroke="#dd2a7d" points="409.746,-117.432 410.773,-106.515 408.13,-112.7 406.514,-107.969 406.514,-107.969 406.514,-107.969 408.13,-112.7 402.256,-109.423 409.746,-117.432 409.746,-117.432"/>
</g>
</g>
</svg>
